<?xml version="1.0" encoding="UTF-8"?><svg id="a" xmlns="http://www.w3.org/2000/svg" viewBox="0 0 571.47 711.2"><g id="b"><path d="M238.69,509.2c-1.68-7.77-4.47-14.97-8.11-21.43-.41-.73-.82-1.45-1.25-2.16-.76-1.25-1.54-2.47-2.36-3.66h0c-.8-1.15-1.63-2.27-2.48-3.36-.44-.57-.9-1.11-1.36-1.66-4.51-5.42-9.7-10.02-15.36-13.62-.69-.44-1.38-.88-2.09-1.28-.96-.56-1.94-1.09-2.93-1.6-.97-.49-1.95-.95-2.94-1.39-.74-.33-1.48-.63-2.23-.92-6.23-2.45-12.79-3.78-19.47-3.78-1.1,0-2.2.04-3.3.12-1.4.09-2.8.24-4.2.45-.03,0-.05.02-.08.03-4.24.92-8.3,2.37-12.12,4.29-.82.41-1.64.84-2.44,1.3-.03.54-.05,1.09-.07,1.65-.02.4-.03.8-.04,1.2-.06,2.16-.09,4.45-.08,6.92,0,0,0,0,0,0,.79-.59,1.59-1.15,2.4-1.69.59-.39,1.18-.78,1.78-1.15.03-.02.07-.04.1-.06.62-.38,1.24-.74,1.87-1.1.15-.09.31-.17.47-.26.67-.37,1.35-.73,2.04-1.07,0,0,0,0,0,0,.47.79.92,1.56,1.34,2.3.85,1.49,1.63,2.89,2.38,4.27.37.69.74,1.37,1.11,2.05-6.63,3.03-12.49,7.61-17.14,13.19-2,2.39-3.77,4.96-5.29,7.67-3.04,5.42-5.07,11.39-5.82,17.56-2.65-.75-4.81-.96-6.92-1.12-.3-.02-.6-.05-.9-.07.05-.74.13-1.47.21-2.2.02-.21.05-.43.08-.64.07-.54.15-1.08.23-1.62.03-.21.07-.42.1-.63.12-.7.25-1.4.4-2.1,0-.02,0-.04.01-.05.15-.72.33-1.44.51-2.15.05-.18.1-.37.15-.55.15-.55.3-1.09.47-1.64.06-.18.11-.37.17-.55.45-1.41.95-2.81,1.5-4.18.05-.13.11-.27.17-.4.24-.57.48-1.13.74-1.7.06-.14.13-.28.19-.42.64-1.37,1.33-2.71,2.07-4.02.04-.07.09-.15.13-.22.34-.59.68-1.17,1.04-1.75.06-.09.12-.19.18-.28.82-1.3,1.69-2.57,2.61-3.8.02-.03.04-.05.06-.08.44-.58.89-1.16,1.35-1.72.05-.06.1-.13.16-.19.41-.49.82-.98,1.24-1.46.6-.69,1.22-1.37,1.86-2.03,0,0,0,0,0,0-.72-2.08-1.41-4.05-2.08-5.91-.21-.58-.42-1.15-.63-1.72-.09-.25-.19-.51-.28-.76-.64.6-1.25,1.22-1.87,1.85-3.44,3.56-6.5,7.66-9.09,12.23-.13.22-.26.44-.38.66-8.17,14.84-10.57,32.77-6.74,50.49,3.01,13.93,9.55,26.04,18.23,35.32.47.5.93.99,1.41,1.47.03-.04.05-.09.08-.13.41-.66.85-1.29,1.32-1.9,4.74-6.25,12.35-9.86,20.36-9.55,9.82.39,19.51,1.01,29.17,1.79.92.07,1.84.14,2.76.22,1.28.11,2.56.23,3.84.34,1.27.11,2.54.22,3.81.34.96.09,1.92.19,2.88.29,5.14.5,10.28,1.04,15.44,1.62.9.1,1.79.19,2.69.3.39-.61.78-1.23,1.16-1.86.36-.6.72-1.21,1.06-1.83,1.55-2.81,2.86-5.73,3.99-8.74.25-.66.5-1.32.72-1.99.44-1.29.86-2.6,1.22-3.92.39-1.4.72-2.83,1.02-4.26.17-.8.3-1.61.44-2.42,1.64-9.41,1.48-19.32-.65-29.17ZM184.42,461.58c-.1,1.41-.18,2.84-.28,4.27-.1,1.43-.22,2.86-.41,4.29-.71,0-1.39-.02-2.05-.03-1.97-.03-3.71-.08-5.45-.12-.29-1.46-.54-2.84-.77-4.19-.23-1.35-.45-2.67-.66-3.99,3.67-.38,6.65-.43,9.62-.22ZM220.37,529.85c-1.56,9.42-6.98,16.87-14.51,18.91-.47.13-.94.25-1.42.33-.33.06-.66.09-.99.13-.61.07-1.23.12-1.84.12-.55,0-1.09-.04-1.63-.09-1.27-.13-2.53-.39-3.77-.81-1.01-.34-2.01-.78-2.99-1.31-1.86-1-3.64-2.34-5.32-4-4.55-4.52-7.75-10.97-9.01-18.15-.6-3.42-.7-6.77-.38-9.94.01-.13.02-.25.04-.38.06-.53.13-1.06.21-1.59l-2.01-.34-12.22-2.08c-1.98-.34-3.31-2.18-3.05-4.15,0-.05,0-.09,0-.14.28-1.64,1.61-2.83,3.17-3.04.36-.05.73-.06,1.11,0l12.91,2.2,2.11.36,3.72.63,2.77.47,1.08.18,1.33.23.69.12,2.56.44,3.3.56,2.42.41,9.16,1.56,2.49.42,4.4.75.94.16,2.02.34,1.26.21,2.17.37.38.07.39.07c.12.02.23.06.34.09,1.83.5,3.02,2.29,2.7,4.19-.21,1.23-1.01,2.2-2.05,2.71-.09.04-.19.07-.28.1-.13.05-.25.11-.39.14-.31.08-.62.14-.95.14,0,0-.02,0-.02,0-.01,0-.02,0-.04,0-.19,0-.38-.02-.57-.05h0c.07.61.09,1.21.13,1.81,0,.06,0,.12.01.18.06,1.17.09,2.33.04,3.47-.06,1.43-.21,2.82-.44,4.18Z" fill="#d1d1d1"/><path d="M439.04,482.37c-2.87-20.92-11.47-39.95-24.81-55.58-.53-.62-1.05-1.25-1.6-1.86-.7.44-1.41.85-2.11,1.27-.15.09-.3.18-.45.27-16,9.41-32.95,17.24-50.43,23.47-.73.26-1.45.53-2.17.79.76.58,1.5,1.17,2.23,1.78,10.96,9.11,18.56,21.14,21.01,35.11,3.13,17.85-2.5,36.08-15.84,51.33-13.14,15.03-32.26,25.38-53.82,29.16-5.86,1.03-11.66,1.52-17.34,1.52-.95,0-1.89-.04-2.83-.06-.22,0-.45,0-.67-.01-2.68-.1-5.33-.31-7.94-.62-4.28-.51-8.46-1.31-12.49-2.37-2.26-.6-4.47-1.28-6.63-2.04-.63-.22-1.27-.43-1.89-.66-.25.47-.49.95-.74,1.42-.04.07-.07.14-.11.21-.02.04-.05.08-.07.13-.29.51-.59,1.01-.88,1.52.7.1,1.42.2,2.12.29,2.55.35,5.11.7,7.68,1.06.25.03.5.07.75.1,6.82.95,13.74,1.95,20.79,2.97.46.07.91.13,1.37.2,3.98.43,8.08.99,12.33,1.7,1.15.1,2.28.3,3.39.59,0,0,.02,0,.02,0,0,0,.01,0,.02,0,.1.02.19.04.29.07.07.02.13.05.19.07s.14.03.2.06c1.06.42,2.07.82,3.04,1.21.33.13.65.26.97.39.51.21,1.02.41,1.5.61.59-.5,1.22-.96,1.88-1.37,1.72-1.07,3.66-1.84,5.71-2.19,4.86-.83,10.23.53,14.74,3.73,3.59,2.55,6.64,6.13,9.31,10.95l.22.4c.24.44.49.88.74,1.29.48.79.98,1.46,1.52,1.74.79.41,2.19.23,4.05-.53.25-.1.51-.22.76-.33.6-.27,1.2-.56,1.8-.89.69-.38,1.38-.78,2.06-1.23,1.21-.79,2.37-1.7,3.5-2.7,3.23-2.86,6.1-6.52,8.43-10.79,4.07-7.46,6.23-15.98,7.95-23.39.41-1.77,2.17-2.87,3.93-2.46,1.76.41,2.86,2.17,2.46,3.93-.22.95-.45,1.92-.68,2.9h0c-1.72,7.11-3.97,14.97-7.9,22.16-2.44,4.47-5.42,8.38-8.79,11.58-.16.15-.31.31-.48.46-.57.53-1.15,1.04-1.74,1.52-.02.02-.05.04-.07.06.04.05.08.1.12.15.13.15.25.3.37.46.63.76,1.24,1.53,1.84,2.3.04.05.07.09.11.14.16.2.31.4.47.61.02.02.03.04.05.06.57.75,1.12,1.51,1.67,2.28.14.19.28.38.41.57.19.27.37.54.55.8,0,0,.01.02.02.03.44.65.88,1.3,1.3,1.95.02.02.03.05.05.07.15.23.29.46.44.7.48.76.95,1.53,1.4,2.3.17.29.34.57.5.86.52.9,1.02,1.8,1.5,2.71.05.1.11.19.16.29.16.3.31.61.47.92.28.55.56,1.09.83,1.64.6-.6,1.18-1.21,1.77-1.83.06-.06.11-.12.17-.18.87-.94,1.72-1.91,2.55-2.9,1.26-1.49,2.46-3.01,3.62-4.58.48-.66.96-1.31,1.43-1.98.85-1.22,1.67-2.46,2.46-3.72.76-1.22,1.5-2.46,2.2-3.72.37-.65.71-1.32,1.06-1.98,1.87-3.54,3.53-7.19,4.89-10.93.24-.67.68-1.2,1.22-1.57.84-.58,1.94-.76,2.98-.39,1.7.62,2.58,2.5,1.96,4.2-1.07,2.95-2.33,5.85-3.71,8.69-.32.66-.64,1.32-.98,1.98h3.87c.64-.64,1.26-1.32,1.89-1.98,4.4-4.6,8.54-9.57,12.35-14.94,19.24-27.11,27.81-60.63,23.51-91.94ZM394.66,466.59c.58-5.19,1.77-10.31,3.54-15.21.62-1.7,2.5-2.59,4.2-1.97,1.7.62,2.58,2.5,1.97,4.2-.3.84-.57,1.69-.84,2.55-1.13,3.63-1.93,7.37-2.35,11.15-.15,1.36-.11,2.2.11,2.51.14.2.94.41,1.74.13.96-.34,1.8-1.14,2.17-2.09.37-.95.31-2.1-.17-3.01-.81-1.54-.27-3.42,1.19-4.31.06-.04.11-.08.18-.12,1.61-.85,3.59-.23,4.43,1.37,1.36,2.58,1.54,5.75.47,8.46s-3.35,4.92-6.1,5.88c-.99.35-2,.51-2.99.51-2.51,0-4.86-1.08-6.25-3.02-1.8-2.51-1.46-5.58-1.29-7.05ZM412.32,511.98c-2.32,0-4.42-1.08-5.95-3.04-1.62-2.09-2.32-4.8-2.09-8.04l.96-13.51c.13-1.81,1.68-3.17,3.5-3.04,1.81.13,3.17,1.7,3.04,3.5l-.25,3.45h0s-.71,10.05-.71,10.05c-.11,1.58.13,2.78.74,3.56.39.51.63.5.78.5.88-.02,2.25-1,2.7-1.64.5-.7.54-2,.08-3.24-.49-1.34-.04-2.79,1-3.65.28-.23.59-.42.94-.55,1.7-.62,3.58.25,4.21,1.95,1.23,3.34.88,6.83-.92,9.33-1.07,1.48-4.09,4.29-7.91,4.36-.04,0-.09,0-.13,0Z" fill="#0e6048"/><path d="M268.9,503.23c.48,2.24.87,4.49,1.18,6.73.15,1.05.28,2.1.4,3.16.26-.34.53-.67.83-.99.3-.32.62-.61.96-.9,1.93-1.65,4.4-2.79,7.12-3.27,7.07-1.24,13.38,2.27,14.38,7.98.5,2.86-.49,5.86-2.73,8.22-2.02,2.13-4.89,3.61-8.08,4.17-.92.16-1.85.24-2.76.24-2.24,0-4.4-.48-6.26-1.42-.35-.18-.66-.39-.98-.6-.71-.46-1.38-.95-1.94-1.53-.02,1.03-.07,2.05-.13,3.07-.12,2.31-.33,4.59-.62,6.87-.18,1.41-.4,2.82-.65,4.22-.98,5.53-2.48,10.92-4.49,16.11-.24.61-.46,1.23-.71,1.83.62.23,1.24.44,1.87.65,13.01,4.41,28.03,5.71,43.49,3.01,19.89-3.48,37.47-12.98,49.5-26.73,11.83-13.53,16.84-29.56,14.11-45.16-2.4-13.69-10.5-25.26-22.12-33.55-.83-.59-1.68-1.17-2.54-1.73-.83.26-1.66.5-2.49.76-28.04,8.55-57.19,12.99-85.92,12.99-1.73,0-3.46-.03-5.19-.06-.82-.02-1.65-.03-2.47-.05.6.8,1.16,1.64,1.74,2.46,6.86,9.87,11.84,21.24,14.49,33.51ZM317.52,496.43c-.47.38-.95.77-1.42,1.15h0c-2.82,2.28-5.71,4.62-8.83,7.04,3.83,1.91,7.56,4.05,11.17,6.36h0c.88.56,1.76,1.13,2.62,1.72,1.5,1.02,1.88,3.06.86,4.56-.63.93-1.66,1.43-2.71,1.43-.64,0-1.28-.18-1.84-.57-5.57-3.8-11.53-7.1-17.69-9.83-1.06-.47-1.8-1.47-1.93-2.63-.13-1.16.36-2.29,1.29-2.99,5.27-3.97,9.89-7.71,14.36-11.34,1.41-1.14,3.47-.93,4.61.48,1.14,1.41.93,3.47-.48,4.61ZM272.04,536.86c.06-.2.15-.39.25-.58.88-1.58,2.88-2.15,4.46-1.27,1.37.76,2.88,1.24,4.43,1.44,1.46.19,2.96.13,4.4-.21,1.44-.34,2.8-.95,4.03-1.78h0c1.3-.87,2.44-1.98,3.32-3.27,1.02-1.49,3.06-1.88,4.56-.86,1.5,1.02,1.88,3.06.86,4.56-2.62,3.84-6.73,6.66-11.26,7.73-1.4.33-2.84.49-4.28.49-3.22,0-6.44-.81-9.24-2.38-1.1-.61-1.69-1.77-1.67-2.94,0-.32.05-.63.15-.94Z" fill="#fff"/><path d="M140.69,461.63c.62-.53,1.25-1.04,1.89-1.54-.13-.29-.26-.57-.39-.85-.02-.04-.04-.08-.06-.12-.2-.43-.4-.85-.6-1.26-.09-.19-.18-.38-.27-.56-.64.48-1.25,1-1.87,1.51-6.47,5.32-12.03,12.02-16.38,19.93-9.28,16.85-12.02,37.13-7.71,57.1,3.8,17.59,12.73,33.19,25.37,44.53.55.49,1.09.98,1.65,1.46.06-.2.13-.39.19-.59.15-.5.31-.98.47-1.47.11-.34.21-.7.33-1.04-.54-.47-1.05-.96-1.58-1.44-11.68-10.84-19.94-25.51-23.51-42.08-4.45-20.61-.89-40.88,8.4-56.7,3.79-6.46,8.54-12.18,14.09-16.88Z" fill="#fff"/><path d="M166.63,445.95c-.1.02-.19.02-.29.03-.32.06-.64.12-.95.19-.97.21-1.93.45-2.88.71-.77.21-1.53.43-2.29.67-.89.28-1.78.57-2.66.89-.05.21-.1.44-.15.66-.06.26-.12.51-.18.77-.06.28-.12.57-.17.86-.07.38-.15.76-.22,1.16.84-.34,1.69-.65,2.55-.94,2.15-.75,4.36-1.38,6.63-1.87,2.69-.58,5.37-.95,8.05-1.14,8.99-.63,17.87.88,26.19,4.2.75.3,1.49.61,2.23.94.99.44,1.97.9,2.94,1.39.98.5,1.95,1.02,2.92,1.56.7.4,1.4.82,2.09,1.24.62.38,1.22.77,1.83,1.17,1.99,1.31,3.94,2.71,5.81,4.24.64.52,1.27,1.07,1.89,1.62,1.08.95,2.13,1.94,3.16,2.95,1.24,1.22,2.44,2.48,3.6,3.8.45.51.91,1.02,1.34,1.55.83,1,1.64,2.03,2.43,3.07.8,1.07,1.58,2.16,2.34,3.28.41.61.8,1.23,1.19,1.85,5.07,7.96,8.93,17.05,11.08,27.02,2.63,12.18,2.53,24.47-.15,35.97-.17.71-.34,1.42-.52,2.12-.34,1.3-.71,2.59-1.12,3.86h0c-.39,1.23-.81,2.44-1.26,3.65-.24.63-.5,1.26-.75,1.89-.99,2.41-2.1,4.77-3.34,7.06-.09.16-.17.33-.26.49-.26.47-.53.91-.8,1.37.36.04.72.09,1.07.13.51.06,1.02.12,1.54.19.2.02.4.05.6.07.06-.11.13-.22.19-.33.28-.51.55-1.03.82-1.54.97-1.86,1.85-3.76,2.66-5.69.26-.62.52-1.24.76-1.86.46-1.18.89-2.37,1.29-3.57h0c.41-1.24.8-2.49,1.16-3.75.19-.68.37-1.36.54-2.04,3.1-12.31,3.32-25.55.49-38.65-2.3-10.63-6.5-20.52-12.23-29.2-.39-.6-.77-1.2-1.18-1.79-.75-1.08-1.53-2.13-2.33-3.17h0c-.79-1.02-1.6-2.02-2.43-2.99-.44-.51-.89-1.01-1.34-1.51-.2-.22-.39-.44-.59-.66-.86-.94-1.74-1.86-2.65-2.76-2.18-2.15-4.47-4.18-6.89-6.05-1.68-1.3-3.4-2.5-5.15-3.63-.48-.31-.98-.59-1.47-.89-.69-.42-1.38-.86-2.08-1.25-.27-.16-.55-.29-.83-.45-.69-.38-1.38-.76-2.08-1.11-.97-.49-1.96-.96-2.94-1.4-.74-.33-1.49-.63-2.24-.93-5.92-2.38-12.06-3.85-18.26-4.38-1.7-.14-3.4-.24-5.11-.24-3.06,0-6.13.25-9.19.71-1.27.23-2.18.39-2.4.44Z" fill="#fff"/><path d="M211.38,445.77c.61.32,1.23.64,1.84.98.7.39,1.39.81,2.08,1.23.57.35,1.14.7,1.71,1.07,1.57,1.01,3.11,2.09,4.64,3.21.11.08.22.16.33.24.31.23.62.45.93.68,1.26.97,2.48,1.99,3.68,3.04,1.05.92,2.08,1.86,3.09,2.82,1.23,1.18,2.42,2.4,3.57,3.65.02.02.04.04.06.06.43.47.86.93,1.28,1.41.63.71,1.25,1.43,1.85,2.17.19.23.38.46.57.7h0c.5.62.98,1.26,1.47,1.9.28.37.58.73.85,1.1.41.55.78,1.12,1.17,1.68,7,9.96,12.09,21.47,14.78,33.91,3.26,15.11,2.77,30.4-1.23,44.51-.18.65-.37,1.3-.56,1.94-.37,1.21-.78,2.42-1.2,3.61h0c-.41,1.16-.85,2.3-1.32,3.44-.25.61-.52,1.21-.79,1.82-.41.94-.83,1.87-1.28,2.79-.3.63-.59,1.26-.91,1.88.42.05.85.11,1.27.16.27.04.55.07.82.11.45.06.91.12,1.36.18.39-.61.77-1.22,1.15-1.84.31-.51.61-1.03.91-1.56.14-.25.29-.5.44-.75.18-.32.34-.65.51-.98.58-1.08,1.12-2.18,1.64-3.28h0c.53-1.12,1.03-2.25,1.5-3.4.25-.61.48-1.22.72-1.84,5.64-14.71,6.87-31.25,3.34-47.6-2.86-13.27-8.66-25.4-16.76-35.44-.35-.44-.71-.87-1.07-1.29-.36-.42-.71-.85-1.07-1.26-.07-.08-.14-.17-.21-.25-.82-.93-1.66-1.84-2.52-2.72h0c-.17-.18-.35-.35-.53-.52-.7-.7-1.4-1.4-2.13-2.08-.48-.45-.98-.88-1.48-1.32-.09-.08-.18-.16-.27-.24-1.09-.95-2.19-1.88-3.33-2.77-.09-.07-.18-.15-.27-.22-2.98-2.3-6.07-4.32-9.24-6.07-.96-.53-1.92-1.03-2.89-1.51-1.26-.62-2.54-1.21-3.82-1.74-.1-.04-.2-.08-.3-.12-.75-.31-1.51-.62-2.27-.9-.73-.27-1.46-.52-2.2-.77-.24-.08-.47-.16-.71-.24.28.14.55.29.82.44h0Z" fill="#fff"/><path d="M152.14,486.77c4.65-5.58,10.51-10.16,17.14-13.19-.37-.68-.74-1.36-1.11-2.05-.75-1.38-1.52-2.78-2.38-4.27-.43-.74-.87-1.51-1.34-2.3,0,0,0,0,0,0-.69.34-1.37.7-2.04,1.07-.16.09-.31.17-.47.26-.63.35-1.26.72-1.87,1.1-.03.02-.07.04-.1.06-.6.37-1.19.76-1.78,1.15-.81.55-1.62,1.11-2.4,1.69,0,0,0,0,0,0h0c0,2.18.04,4.49.08,6.93.03,1.62-1.12,3.01-2.71,3.29-.19.03-.38.05-.57.05-1.38,0-2.64-.88-3.1-2.22-.22-.66-.44-1.28-.66-1.91h0s0,0,0,0c-.64.66-1.25,1.34-1.86,2.03-.42.48-.84.97-1.24,1.46-.05.06-.1.13-.16.19-.46.57-.91,1.14-1.35,1.72-.02.03-.04.05-.06.08-.92,1.23-1.79,2.5-2.61,3.8-.06.09-.12.19-.18.28-.36.58-.71,1.16-1.04,1.75-.04.07-.09.15-.13.22-.74,1.31-1.43,2.65-2.07,4.02-.06.14-.13.28-.19.42-.26.56-.5,1.13-.74,1.7-.06.13-.11.26-.17.4-.56,1.37-1.06,2.76-1.5,4.18-.06.18-.11.37-.17.55-.16.54-.32,1.09-.47,1.64-.05.18-.1.36-.15.55-.18.71-.36,1.43-.51,2.15,0,.02,0,.04-.01.05-.15.7-.28,1.4-.4,2.1-.04.21-.07.42-.1.63-.09.54-.16,1.08-.23,1.62-.03.21-.06.43-.08.64-.08.73-.16,1.47-.21,2.2.3.02.6.05.9.07,2.1.16,4.26.37,6.92,1.12.75-6.17,2.78-12.14,5.82-17.56,1.52-2.71,3.3-5.28,5.29-7.67Z" fill="#fff"/><path d="M181.68,470.11c.66.01,1.34.02,2.05.03.19-1.42.31-2.86.41-4.29.1-1.43.18-2.86.28-4.27-2.97-.2-5.95-.16-9.62.22.21,1.32.43,2.64.66,3.99.23,1.35.48,2.74.77,4.19,1.74.04,3.48.09,5.45.12Z" fill="#fff"/><path d="M276.89,521.3c1.36.68,3.16.89,4.95.58,1.79-.31,3.41-1.12,4.45-2.22.47-.49,1.22-1.48,1.03-2.58-.31-1.76-3.18-3.28-6.79-2.65-1.79.31-3.41,1.12-4.45,2.22-.47.49-1.22,1.48-1.03,2.58.19,1.09,1.24,1.77,1.85,2.07Z" fill="#fff"/><path d="M141.71,445.6c.4.52.8,1.04,1.19,1.6.69.98,1.35,2.03,2.01,3.14h0c.61,1.03,1.2,2.12,1.79,3.26.09.17.18.36.27.54.18.35.35.72.53,1.08.03.06.05.11.08.16.15.31.31.61.46.93.17.36.34.74.51,1.11.28.62.56,1.25.84,1.89h0c.04.1.09.19.13.29,0-.13.02-.26.03-.39.05-.88.12-1.73.19-2.56.04-.47.08-.94.13-1.41.04-.43.09-.84.14-1.25.02-.14.03-.29.05-.42.05-.43.11-.85.17-1.27.03-.23.06-.48.1-.71.24-1.61.53-3.14.87-4.58h0c.39-1.65.86-3.19,1.4-4.65.33-.88.69-1.71,1.08-2.53,3.82-8.03,10.66-13.17,22.55-18.26-21.21-1.22-29.67-7.16-38.03-26.69-1.22,21.21-7.16,29.67-26.69,38.03,14.92.86,23.53,4.06,30.24,12.69Z" fill="#fff"/><path d="M298.39,662.7c6.83-5.66,15.16-13.55,21.87-21.44.61-.71,1.22-1.43,1.8-2.14-.73-.08-1.46-.23-2.17-.44-2.23-.66-4.25-1.98-5.7-3.83-.17-.22-.35-.43-.5-.66-.37-.56-.68-1.16-.95-1.78-.31-.72-.54-1.48-.73-2.27-.08-.35-.18-.69-.23-1.06-.07-.49-.12-.98-.14-1.49-.84-.21-1.66-.54-2.43-.97-.55-.3-1.08-.65-1.57-1.06-.87-.73-1.64-1.61-2.25-2.62-.18-.31-.36-.62-.51-.95-.07-.16-.13-.32-.2-.48-.38-.95-.63-1.95-.77-3-.92-.51-1.77-1.16-2.54-1.91-1.93-1.88-3.33-4.42-3.85-7.24-.51-2.78-.22-5.75.81-8.7.23-.66.49-1.32.79-1.98.04-.09.08-.19.12-.28.58-1.2,1.27-2.35,2.06-3.43.98-1.36,2.13-2.6,3.39-3.72.74-.66,1.51-1.26,2.32-1.82.08-.05.16-.1.24-.16.65-.44,1.32-.85,2.01-1.22-.08-.9-.07-1.81.03-2.71.02-.22.05-.43.09-.65.08-.5.18-1,.32-1.49.04-.14.09-.28.14-.42,0-.01,0-.02.01-.04-.71-.29-1.46-.59-2.25-.9-.43-.17-.85-.34-1.3-.52l-3.6-.52c-.07,0-.13,0-.2,0-1.93,0-3.87.37-5.78,1.01-4.3,1.43-8.43,4.24-11.89,7.46-.69.65-1.36,1.31-2,1.98-.35.37-.69.74-1.02,1.11-.72.82-1.38,1.69-1.99,2.61-.79,1.17-1.49,2.41-2.12,3.72-.31.65-.6,1.31-.88,1.98-1.87,4.53-3.01,9.6-3.89,14.6-.14.81-.28,1.63-.41,2.43-.18,1.1-.35,2.19-.52,3.27h0c0,.06-.02.12-.03.18-.18,1.15-.88,2.1-1.82,2.64-.55.32-1.18.5-1.85.5-.11,0-.22,0-.33-.01-1.31-.12-2.6-.23-3.9-.35-27.16-2.48-51.53-5.39-74.18-8.87-.73-.11-1.46-.22-2.19-.34-.42.61-.87,1.2-1.34,1.8-8.19,10.52-22.53,19.27-32.54,24.52l144.56,21.68Z" fill="#fff"/><path d="M156.67,601.72c8.2,1.6,16.59,3.1,25.21,4.51.67.11,1.33.23,2,.34,1.26.2,2.52.41,3.79.61.64.1,1.3.2,1.95.3.6.09,1.19.18,1.79.28.66.1,1.33.2,1.99.3,16.63,2.51,34.24,4.72,53.2,6.69,1.89.2,3.77.39,5.68.58,2.83.28,5.68.56,8.57.83,1.44.14,2.87.27,4.33.41.1-.6.2-1.21.3-1.82.14-.81.29-1.63.44-2.45.73-3.91,1.64-7.85,2.94-11.63.23-.67.47-1.33.73-1.98.49-1.26,1.04-2.51,1.65-3.72.64-1.28,1.34-2.52,2.13-3.72.44-.67.9-1.33,1.39-1.98.47-.63.97-1.24,1.49-1.84,2.38-2.69,4.89-5.02,7.47-6.97.85-.64,1.7-1.24,2.56-1.8.1-.07.21-.14.31-.2-9.22-1.33-18.21-2.61-27.06-3.81-.78-.11-1.55-.21-2.32-.31-.74-.1-1.49-.2-2.23-.3-1.41-.19-2.81-.37-4.21-.56-1.44-.19-2.88-.38-4.32-.56-.1-.01-.2-.03-.3-.04-.67-.09-1.35-.17-2.02-.26-.05,0-.11-.01-.16-.02-.28-.03-.55-.07-.83-.11-2.48-.31-4.96-.62-7.42-.92-.01,0-.02,0-.03,0-.21-.03-.42-.05-.63-.08-.54-.06-1.08-.13-1.62-.19-.38-.04-.75-.09-1.13-.13-1.28-.15-2.56-.3-3.84-.45-1.3-.15-2.59-.29-3.89-.44-.99-.11-1.97-.21-2.96-.31-1.8-.2-3.6-.38-5.4-.57-1.02-.1-2.04-.22-3.05-.32-1.34-.13-2.68-.26-4.03-.39-1.35-.13-2.7-.26-4.05-.38-.97-.09-1.93-.16-2.9-.24-11.06-.96-22.12-1.7-33.35-2.15-5.82-.24-11.3,2.49-14.54,7.15-.17.25-.35.5-.51.77-.26.42-.48.87-.73,1.3,0,0,0,.02-.01.02-.39.7-.77,1.41-1.12,2.14-.48,1-.92,2.03-1.32,3.09h0c-.12.3-.22.61-.33.92-.27.77-.52,1.55-.75,2.35,0,.03-.02.07-.02.1-.09.3-.15.62-.23.93-.13.49-.26.97-.37,1.47-.04.19-.1.37-.14.56-.18.83-.33,1.69-.47,2.55-.08.48-.16.96-.22,1.45-.02.18-.05.35-.07.53-.15,1.18-.26,2.39-.33,3.62,0,.03,0,.06,0,.1-.04.71-.04,1.45-.06,2.17-.01.52-.04,1.02-.04,1.54,0,.41-.02.8-.01,1.22,1.25.26,2.52.51,3.78.76,1.77.36,3.53.72,5.32,1.07Z" fill="#fff"/><path d="M328.25,625c.12-.2.25-.38.4-.55.23-.25.51-.47.82-.64.05-.03.09-.06.14-.09.65-.32,1.36-.41,2.03-.28.13.02.26.06.39.1.53.16,1.02.45,1.41.87.17.17.36.32.56.46.28.2.58.37.9.5.67.27,1.39.39,2.09.31.12-.02.23-.06.34-.09.56-.13,1.1-.36,1.58-.71.35-.25.64-.56.89-.9.1-.14.22-.27.31-.42.08-.15.18-.28.29-.42.14-.18.29-.34.45-.48.2-.17.43-.31.66-.43.93-.47,2.07-.51,3.05.03.29.16.53.36.74.58.34.35.6.76.76,1.21.82.04,1.65.04,2.49.01,2.35-.08,4.76-.45,7.14-1.13,4.38-1.25,8.74-3.48,13.03-6.64.06-.04.12-.09.18-.13.6-.45,1.19-.91,1.79-1.39,0,0,0,0,.01-.01-.09-.19-.18-.38-.27-.57-.06-.13-.12-.26-.19-.39-.05-.11-.11-.23-.16-.34-.3.12-.62.21-.96.23-.51.03-1.01.1-1.51.19,0,0,0,0-.01,0-1.6.29-3.15.84-4.56,1.65-.51.29-1.07.43-1.63.43-.44,0-.87-.11-1.28-.29-.64-.27-1.2-.72-1.57-1.36-.9-1.57-.35-3.58,1.22-4.47,1.44-.82,2.99-1.45,4.59-1.91,0,0,0,0,.01,0,.81-.23,1.63-.43,2.47-.57-.02-.03-.03-.06-.05-.08-.42-.72-.86-1.42-1.3-2.13-.06-.09-.11-.19-.17-.28-.08-.13-.15-.26-.24-.39-.07-.11-.15-.22-.22-.33-.29-.45-.59-.9-.89-1.35,0,0,0,0,0,0-.76.3-1.51.62-2.25.95,0,0,0,0-.01,0-1.63.73-3.22,1.54-4.75,2.45-.52.31-1.1.46-1.66.46-1.12,0-2.21-.58-2.83-1.61-.9-1.52-.42-3.45,1.04-4.41.04-.03.07-.06.12-.09,1.14-.68,2.32-1.3,3.51-1.89.2-.1.4-.18.59-.28,0,0,0,0,.01,0,.74-.36,1.48-.72,2.24-1.04,0,0,.01,0,.02,0-.27-.34-.55-.67-.82-1-.26-.31-.51-.63-.77-.94h0c-.11-.14-.22-.28-.34-.41,0,0,0,0-.01,0-.74.4-1.49.76-2.24,1.1-.34.15-.69.32-1.03.46-3.79,1.54-6.9,1.63-9.52.28-.97-.5-1.77-1.15-2.44-1.88-1.09-1.17-1.85-2.53-2.5-3.72-.02-.04-.04-.08-.06-.11l-.21-.38c-.29-.51-.57-1.01-.87-1.49-1.95-3.18-4.09-5.58-6.5-7.29-2.53-1.79-5.38-2.74-8.06-2.74-.61,0-1.2.03-1.79.13-.48.08-.95.22-1.41.37-1.42.49-2.7,1.3-3.68,2.33-.33.35-.62.72-.88,1.11-.38.57-.68,1.18-.87,1.82-.03.11-.05.22-.07.33-.04.15-.08.31-.1.47.27-.05.53-.1.79-.14.59-.09,1.18-.14,1.78-.18,1.89-.13,3.8-.02,5.67.31h0c.81.15,1.62.32,2.41.55,1.35.4,2.24,1.6,2.33,2.93.02.38,0,.76-.12,1.14-.09.31-.23.58-.4.84-.02.04-.05.08-.08.11-.44.62-1.07,1.05-1.78,1.26-.15.04-.3.09-.45.11-.41.05-.83.03-1.25-.08-.04,0-.08-.01-.12-.02-.78-.23-1.58-.38-2.39-.49-1.34-.18-2.71-.21-4.07-.06-1.26.14-2.51.41-3.7.83-.39.14-.78.28-1.15.45-.63.28-1.24.62-1.83.98-.33.2-.65.41-.96.63-.34.24-.68.5-1,.77-1.04.86-1.99,1.85-2.79,2.94-.46.63-.87,1.29-1.24,1.98-.1.2-.22.38-.32.58-1,2.07-1.45,4.21-1.29,6.11.02.28.06.55.11.82.17.93.53,1.81,1.01,2.57.05-.13.09-.26.14-.4.35-.87.78-1.71,1.24-2.52,1.61-2.83,3.81-5.27,6.41-7.17.33-.24.67-.47,1.01-.69.7-.46,1.42-.9,2.17-1.29.06-.03.11-.06.17-.09,1.51-.76,3.09-1.35,4.73-1.77,1.03-.27,2.08-.45,3.14-.57.63-.07,1.27-.12,1.91-.14.05,0,.1,0,.15,0,.12,0,.25,0,.37,0,.66,0,1.31.02,1.97.08.09,0,.18.01.28.02.6.06,1.14.3,1.6.63h0c.61.45,1.05,1.1,1.23,1.85.09.36.13.73.09,1.12-.02.17-.06.33-.1.49h0c-.03.13-.08.24-.13.36-.48,1.21-1.64,2.05-2.97,2.07-.03,0-.06,0-.09,0-.1,0-.21,0-.31,0-.15-.02-.29-.02-.44-.03-.08,0-.16,0-.25-.01-.34-.02-.69-.03-1.03-.02-.38,0-.76.02-1.14.05-1.12.1-2.23.32-3.3.65-1.13.34-2.22.81-3.26,1.38-.81.44-1.58.95-2.31,1.51-.75.58-1.45,1.21-2.08,1.9-1.26,1.36-2.29,2.93-2.99,4.66-.04.09-.07.19-.1.28-.46,1.22-.71,2.4-.74,3.48-.03.91.1,1.74.38,2.45.03.08.05.16.09.23.08.18.19.36.3.52.38.54.91.97,1.46,1.24.19-.58.41-1.16.65-1.72.08-.18.18-.36.26-.54.94-2,2.16-3.85,3.66-5.47.16-.17.33-.33.5-.5.62-.63,1.27-1.23,1.97-1.79.35-.28.71-.56,1.08-.81.59-.41,1.2-.78,1.82-1.13h0c.48-.27.96-.51,1.46-.74.52-.24,1.05-.46,1.59-.66.7-.25,1.4-.47,2.13-.65.06-.02.12-.03.18-.05,0,0,0,0,0,0,.13-.03.26-.05.39-.08.35-.07.69-.15,1.04-.21.12-.02.23-.01.34-.02,1.65-.09,3.14,1.07,3.41,2.75.07.45.02.89-.08,1.3-.17.65-.51,1.25-1.02,1.69-.14.12-.28.23-.44.33-.07.04-.14.07-.22.11-.3.15-.62.28-.97.33,0,0,0,0,0,0-.32.05-.63.12-.94.19-.21.05-.43.11-.64.17-.15.04-.3.08-.45.13-.03,0-.05.01-.08.02-.11.04-.21.08-.31.12-.59.21-1.17.45-1.72.74-.42.22-.83.46-1.22.72h0c-.55.36-1.09.74-1.59,1.17-.29.24-.57.5-.84.77-.06.05-.11.11-.16.17-.6.6-1.14,1.25-1.64,1.94,0,0,0,0,0,0-.53.74-.99,1.53-1.37,2.35h0c-.28.6-.5,1.23-.69,1.87-.11.36-.22.71-.29,1.08-.09.46-.15.9-.19,1.34-.02.22-.03.44-.04.65-.02.94.09,1.81.32,2.58,0,.01,0,.03,0,.05.16.5.36.96.63,1.35.61.91,1.62,1.56,2.73,1.87.95.26,1.95.27,2.84-.04.04-.02.09-.02.14-.04.06-.02.11-.06.16-.08,1.35-.6,2.4-1.98,2.74-3.46.11-.48.14-.96.09-1.44,0-.07,0-.13,0-.2-.02-.1,0-.2,0-.29-.03-.48.02-.95.19-1.38.07-.17.15-.34.24-.49Z" fill="#fff"/><path d="M324.16,702.61l16.12.33,5.77-5.77h-3.48c-.95,0-1.72-.77-1.72-1.72s.77-1.72,1.72-1.72h6.92l3.78-3.78h-3.59c-.29,0-.56-.08-.79-.2-.55-.29-.92-.85-.92-1.51,0-.95.77-1.72,1.72-1.72h7.02l3.78-3.78h-3.7c-.29,0-.56-.08-.79-.2-.55-.29-.92-.85-.92-1.51,0-.95.77-1.72,1.72-1.72h7.13l3.78-3.78h-3.8c-.29,0-.56-.08-.79-.2-.55-.29-.92-.85-.92-1.51,0-.95.77-1.72,1.72-1.72h7.23l3.78-3.78h-3.91c-.29,0-.56-.08-.79-.2-.55-.29-.92-.85-.92-1.51,0-.95.77-1.72,1.72-1.72h7.34l3.78-3.78h-4.01c-.29,0-.56-.08-.79-.2-.55-.29-.92-.85-.92-1.51,0-.95.77-1.72,1.72-1.72h7.45l3.78-3.78h-4.12c-.29,0-.56-.08-.79-.2-.55-.29-.92-.85-.92-1.51,0-.95.77-1.72,1.72-1.72h7.55l3.78-3.78h-4.22c-.29,0-.56-.08-.79-.2-.55-.29-.92-.85-.92-1.51,0-.95.77-1.72,1.72-1.72h7.66l3.78-3.78h-4.33c-.29,0-.56-.08-.79-.2-.55-.29-.92-.85-.92-1.51,0-.95.77-1.72,1.72-1.72h7.76l3.78-3.78h-4.43c-.29,0-.56-.08-.79-.2-.55-.29-.92-.85-.92-1.51,0-.95.77-1.72,1.72-1.72h7.87l3.95-3.95,1.43-1.43-16.12-.33-79.46,79.46Z" fill="#fff"/><path d="M420.09,403.31c-.96-4.74-6.19-8.6-11.67-8.6-.93,0-1.81.08-2.67.2.98,1.7,1.79,3.3,2.46,4.75.76,1.64.04,3.59-1.61,4.35-1.64.76-3.59.04-4.35-1.61-8.48-18.4-28.4-32.92-54.65-39.83-30.05-7.9-61.6-5.1-86.58,7.71-1.26.65-2.5,1.33-3.72,2.02-.33.19-.66.37-.98.56-23,13.43-39.65,35.7-44.88,60-.2.92-.38,1.83-.54,2.75-.1.58-.21,1.16-.3,1.74.05.1.1.19.15.28.11.03.22.06.33.1.99.28,1.97.6,2.94.93.1.03.2.06.3.1h0c1.06.36,2.12.75,3.16,1.16.76.3,1.52.62,2.28.95,5.84,2.52,11.47,5.83,16.77,9.93,1.65,1.28,3.23,2.64,4.78,4.04.49.45,1,.88,1.49,1.34.6.57,1.19,1.16,1.77,1.75.3.3.6.58.89.88.53.55,1.05,1.11,1.57,1.68.7.03,1.4.06,2.11.09.22,0,.44.01.66.02.82.03,1.64.05,2.46.08,28.47.85,57.51-2.79,85.57-10.65.98-.28,1.97-.54,2.95-.83,1.72-.5,3.44-1.02,5.16-1.55,1.58-.49,3.15-1,4.72-1.52.81-.27,1.62-.56,2.43-.83,18.31-6.21,36.05-14.21,52.78-23.96.3-.17.6-.34.9-.51.42-.25.85-.5,1.26-.75.97-.58,1.92-1.17,2.84-1.78h0c.94-.62,1.84-1.27,2.69-1.95.64-.51,1.24-1.04,1.82-1.59.51-.49,1-.99,1.45-1.52,2.66-3.11,3.87-6.81,3.24-9.92ZM257.5,374.98c.29-.24.62-.42.98-.55.83-.31,1.77-.29,2.62.14,1.61.82,2.25,2.8,1.43,4.41-2.15,4.23-4.05,8.61-5.69,13.09-.42,1.14-.83,2.28-1.22,3.44-.52,1.56-1,3.13-1.46,4.71-.44,1.53-.86,3.07-1.25,4.62-.28,1.13-.52,2.27-.77,3.41-1.24,5.72-2.1,11.52-2.5,17.32-.12,1.73-1.56,3.06-3.27,3.06-.07,0-.15,0-.23,0-1.81-.12-3.17-1.69-3.05-3.49.25-3.71.68-7.42,1.27-11.11.19-1.19.39-2.38.62-3.57.3-1.6.63-3.2.99-4.79h0c.37-1.64.78-3.28,1.22-4.9.32-1.2.67-2.39,1.02-3.58,2.19-7.31,5.02-14.43,8.46-21.18.21-.41.49-.75.81-1.02ZM325.32,376.59c3.55-3.34,7.26-6.53,11.14-9.51,1.43-1.1,3.49-.84,4.6.6,1.1,1.44.84,3.49-.6,4.6-2.05,1.58-4.03,3.23-5.98,4.91-.85.73-1.7,1.45-2.53,2.2-1.01.91-2,1.82-2.98,2.75h0c-.11.11-.22.21-.33.32-1.07,1.02-2.12,2.06-3.15,3.12-.76.77-1.49,1.57-2.23,2.36-8.59,9.17-15.97,19.42-21.91,30.51h0c-2.38,4.44-4.54,9.01-6.45,13.7-.08.19-.18.37-.29.54-.61.95-1.65,1.5-2.75,1.5-.41,0-.83-.08-1.23-.24-.37-.15-.69-.37-.96-.62-.99-.9-1.37-2.34-.84-3.65,6.19-15.22,14.84-29.27,25.5-41.62.73-.84,1.46-1.68,2.21-2.5,1.01-1.12,2.04-2.23,3.09-3.33,1.06-1.11,2.14-2.2,3.23-3.27.81-.8,1.64-1.57,2.46-2.35ZM406.93,415.22c-.77.54-1.56,1.06-2.35,1.58-.69.46-1.39.91-2.09,1.37-16.62,10.84-35.14,19.11-54.33,24.28-.94.25-1.87.51-2.81.74-1.93.49-3.87.94-5.82,1.36-.97.21-1.93.43-2.9.62-.22.04-.44.07-.65.07-1.53,0-2.9-1.07-3.21-2.63-.04-.2-.06-.4-.06-.6-.02-1.41.88-2.69,2.23-3.14.13-.04.25-.09.39-.12,1.05-.21,2.09-.46,3.14-.69,6.47-1.43,12.88-3.2,19.18-5.34h0c8.82-3,17.44-6.67,25.71-10.96,0,0,0,0,0,0,4.75-2.47,9.38-5.15,13.88-8.01.72-.46,1.44-.91,2.16-1.38.95-.63,1.89-1.27,2.83-1.91.31-.21.63-.42.93-.63.9-.63,2.01-.73,2.97-.39.62.22,1.19.63,1.6,1.21.07.11.13.22.19.34.69,1.29.44,2.87-.6,3.88h0c-.13.12-.26.24-.4.35Z" fill="#22d071"/><path d="M406.03,588.26l9.25,1c2.64-3.11,5.17-6.36,7.57-9.75,20.54-28.95,29.69-64.8,25.08-98.36-3.08-22.47-12.26-42.94-26.49-59.78.77-.73,1.52-1.49,2.23-2.31,4.5-5.26,6.4-11.65,5.22-17.52-1.79-8.86-10.78-15.8-20.47-15.8-2.11,0-3.95.27-5.47.53-15.02-19.71-38.8-28.61-53.05-32.37-32.16-8.46-66.04-5.4-92.96,8.4-28.68,14.7-49.41,41.85-54.82,71.45-7.39-1.09-14.91-1.01-22.37.3-.1.02-7.31,1.29-11.74,2.08,5.62-4.37,14.33-7.7,27.7-12.25,2.66-.9,4.26-3.61,3.78-6.38-.48-2.73-2.85-4.71-5.61-4.71-.04,0-.07,0-.11,0-37.7.73-41.17-1.72-53.29-37.41-.9-2.66-3.6-4.27-6.38-3.78-2.77.48-4.77,2.91-4.71,5.72.73,37.68-1.72,41.17-37.41,53.29-2.66.9-4.26,3.61-3.78,6.38.48,2.77,2.92,4.72,5.72,4.71,22.97-.44,33.23.31,40.48,9.02-7.8,6.19-14.46,14.09-19.62,23.47-10.38,18.84-13.46,41.44-8.67,63.63,4.43,20.51,15.19,38.64,30.44,51.43,0,0,2,2.63,2.72,5.7l.87,3.72c0,.65.01,1.32.03,1.98.02.82.05,1.65.1,2.49.1,1.67,1.3,3.08,2.94,3.42,11,2.33,22.29,4.46,33.99,6.43.74.13,1.48.26,2.22.38-.5.59-1.03,1.17-1.58,1.75-10.56,11.13-29.45,20.78-37.96,24.36-1.54.65-2.46,2.23-2.25,3.89.21,1.65,1.49,2.97,3.14,3.21l158.16,23.71c.18.03.37.04.55.04.85,0,1.67-.29,2.34-.83,2.76-2.23,19.9-16.39,30.19-31.17,1.06-1.52,2.04-3.04,2.93-4.56.3-.52.6-1.04.88-1.56.68.05,1.36.03,2.04-.06.09-.01.17-.04.26-.05.25-.04.49-.09.73-.14,1.37-.32,2.67-.91,3.82-1.72,1.1.16,2.21.25,3.34.31.52.03,1.03.06,1.55.06,1.59,0,3.2-.11,4.81-.33,1.72-.23,3.44-.59,5.14-1.07,3.24-.92,6.45-2.29,9.61-4.08,2.03-1.15,4.05-2.49,6.04-4,1.25-.94,2.49-1.93,3.71-3.01.35-.3.69-.64,1.03-.96.82-.74,1.63-1.51,2.43-2.3.75-.74,1.49-1.49,2.22-2.28,1.47-1.58,2.87-3.24,4.23-4.93,0,0,0,0,0,0,1.82-2.25,3.53-4.6,5.14-7.01.44-.66.87-1.31,1.29-1.98h12.84l9.25-9.41c2.22-2.69-.24-8.4-3.56-5.3-2.3,2.15-2.55,4.3-5.7,4.3ZM210.89,435.62c.16-.92.34-1.84.54-2.75,5.24-24.3,21.89-46.57,44.88-60,.31-.22.64-.4.98-.56,1.22-.7,2.46-1.38,3.72-2.02,24.98-12.8,56.53-15.61,86.58-7.71,26.25,6.91,46.17,21.42,54.65,39.83.76,1.64,2.71,2.36,4.35,1.61,1.65-.76,2.36-2.71,1.61-4.35-.67-1.45-1.48-3.05-2.46-4.75.85-.12,1.74-.2,2.67-.2,5.48,0,10.72,3.86,11.67,8.6.62,3.1-.59,6.81-3.24,9.92-.45.53-.94,1.03-1.45,1.52-.58.55-1.19,1.09-1.82,1.59-.86.68-1.76,1.32-2.69,1.95h0c-.92.61-1.87,1.2-2.84,1.78-.42.25-.84.5-1.26.75-.3.18-.6.34-.9.51-16.72,9.74-34.47,17.75-52.78,23.96-.81.27-1.62.57-2.43.83-1.57.52-3.14,1.03-4.72,1.52-1.72.53-3.44,1.05-5.16,1.55-.98.29-1.97.55-2.95.83-28.06,7.85-57.1,11.5-85.57,10.65-.82-.02-1.64-.04-2.46-.08-.22,0-.44-.01-.66-.02-.7-.03-1.4-.05-2.11-.09-.52-.56-1.04-1.13-1.57-1.68-.29-.3-.6-.59-.89-.88-.59-.59-1.17-1.18-1.77-1.75-.48-.46-.99-.89-1.49-1.34-1.55-1.4-3.13-2.76-4.78-4.04-5.3-4.1-10.93-7.41-16.77-9.93-.76-.33-1.52-.65-2.28-.95-1.05-.41-2.1-.8-3.16-1.16h0c-.1-.03-.2-.06-.3-.1-.98-.33-1.96-.64-2.94-.93-.11-.03-.22-.06-.33-.1-.05-.1-.1-.19-.15-.28.09-.58.2-1.16.3-1.74ZM280.2,528.58c.91,0,1.84-.08,2.76-.24,3.19-.56,6.06-2.04,8.08-4.17,2.24-2.36,3.24-5.36,2.73-8.22-1-5.71-7.32-9.22-14.38-7.98-2.72.48-5.2,1.63-7.12,3.27-.34.29-.66.58-.96.9-.3.32-.58.65-.83.99-.11-1.05-.25-2.1-.4-3.16-.31-2.25-.7-4.49-1.18-6.73-2.65-12.27-7.63-23.64-14.49-33.51-.57-.83-1.14-1.66-1.74-2.46.82.02,1.65.04,2.47.05,1.73.04,3.46.06,5.19.06,28.73,0,57.88-4.45,85.92-12.99.83-.25,1.66-.5,2.49-.76.87.56,1.71,1.14,2.54,1.73,11.61,8.29,19.72,19.86,22.12,33.55,2.73,15.59-2.28,31.63-14.11,45.16-12.03,13.75-29.61,23.25-49.5,26.73-15.46,2.71-30.48,1.4-43.49-3.01-.63-.21-1.25-.42-1.87-.65.25-.61.47-1.22.71-1.83,2.01-5.19,3.51-10.58,4.49-16.11.25-1.4.46-2.81.65-4.22.29-2.27.5-4.56.62-6.87.05-1.02.11-2.04.13-3.07.56.58,1.23,1.08,1.94,1.53.32.2.63.42.98.6,1.86.94,4.02,1.42,6.26,1.42ZM276.07,516.65c1.04-1.1,2.67-1.91,4.45-2.22,3.62-.63,6.48.89,6.79,2.65.19,1.09-.57,2.08-1.03,2.58-1.04,1.1-2.67,1.91-4.45,2.22-1.79.31-3.59.1-4.95-.58-.61-.31-1.66-.98-1.85-2.07-.19-1.09.57-2.08,1.03-2.58ZM211.27,445.57c.73.24,1.47.5,2.2.77.76.28,1.52.59,2.27.9.1.04.2.08.3.12,1.29.54,2.56,1.12,3.82,1.74.97.48,1.93.98,2.89,1.51,3.18,1.75,6.27,3.77,9.24,6.07.09.07.18.15.27.22,1.14.89,2.24,1.82,3.33,2.77.09.08.18.16.27.24.5.44,1,.87,1.48,1.32.73.68,1.43,1.37,2.13,2.08.17.18.35.35.53.52h0c.86.89,1.7,1.8,2.52,2.72.07.08.14.17.21.25.36.42.72.84,1.07,1.26.36.43.72.86,1.07,1.29,8.09,10.04,13.89,22.17,16.76,35.44,3.53,16.35,2.31,32.89-3.34,47.6-.24.61-.47,1.23-.72,1.84-.47,1.15-.97,2.28-1.5,3.4h0c-.52,1.11-1.07,2.2-1.64,3.28-.17.32-.33.66-.51.98-.14.26-.29.5-.44.75-.3.52-.6,1.05-.91,1.56-.38.62-.76,1.24-1.15,1.84-.45-.06-.91-.12-1.36-.18-.27-.04-.55-.07-.82-.11-.42-.05-.85-.11-1.27-.16.32-.62.61-1.25.91-1.88.44-.92.87-1.85,1.28-2.79.26-.61.54-1.21.79-1.82.46-1.14.9-2.28,1.32-3.44h0c.43-1.19.83-2.4,1.2-3.61.2-.64.38-1.29.56-1.94,4-14.11,4.49-29.4,1.23-44.51-2.68-12.43-7.77-23.95-14.78-33.91-.39-.56-.77-1.13-1.17-1.68-.28-.37-.57-.73-.85-1.1-.49-.64-.96-1.28-1.47-1.9h0c-.19-.23-.38-.47-.57-.7-.6-.73-1.22-1.45-1.85-2.17-.42-.48-.85-.94-1.28-1.41-.02-.02-.04-.04-.06-.06-1.16-1.25-2.35-2.47-3.57-3.65-1.01-.97-2.04-1.91-3.09-2.82-1.2-1.05-2.42-2.07-3.68-3.04-.31-.24-.62-.45-.93-.68-.11-.08-.22-.16-.33-.24-1.52-1.13-3.07-2.21-4.64-3.21-.57-.36-1.14-.72-1.71-1.07-.69-.42-1.38-.83-2.08-1.23-.61-.34-1.23-.66-1.84-.98h0c-.27-.14-.55-.29-.82-.44.24.08.47.16.71.24ZM169.03,445.51c3.06-.47,6.12-.71,9.19-.71,1.71,0,3.41.09,5.11.24,6.2.52,12.34,1.99,18.26,4.38.75.3,1.5.6,2.24.93.99.44,1.97.91,2.94,1.4.7.35,1.39.73,2.08,1.11.28.15.56.29.83.45.7.4,1.39.83,2.08,1.25.49.3.98.57,1.47.89,1.75,1.13,3.47,2.33,5.15,3.63,2.42,1.87,4.71,3.9,6.89,6.05.91.89,1.79,1.82,2.65,2.76.2.22.39.44.59.66.45.5.91.99,1.34,1.51.83.98,1.64,1.97,2.43,2.99h0c.8,1.04,1.58,2.09,2.33,3.17.41.58.79,1.19,1.18,1.79,5.73,8.68,9.94,18.57,12.23,29.2,2.83,13.1,2.61,26.33-.49,38.65-.17.68-.35,1.37-.54,2.04-.35,1.26-.74,2.51-1.16,3.75h0c-.4,1.2-.83,2.39-1.29,3.57-.24.62-.5,1.24-.76,1.86-.81,1.93-1.7,3.83-2.66,5.69-.27.52-.53,1.03-.82,1.54-.06.11-.13.22-.19.33-.2-.02-.4-.05-.6-.07-.51-.06-1.03-.13-1.54-.19-.36-.04-.72-.09-1.07-.13.27-.46.54-.9.8-1.37.09-.16.17-.33.26-.49,1.24-2.29,2.35-4.65,3.34-7.06.26-.63.51-1.25.75-1.89.45-1.2.87-2.42,1.26-3.65h0c.41-1.28.78-2.57,1.12-3.86.18-.7.36-1.41.52-2.12,2.68-11.5,2.78-23.79.15-35.97-2.15-9.97-6-19.06-11.08-27.02-.39-.62-.78-1.25-1.19-1.85-.76-1.12-1.53-2.21-2.34-3.28-.79-1.05-1.6-2.08-2.43-3.07-.44-.53-.89-1.03-1.34-1.55-1.16-1.31-2.36-2.58-3.6-3.8-1.03-1.01-2.08-2.01-3.16-2.95-.63-.55-1.25-1.1-1.89-1.62-1.87-1.53-3.81-2.93-5.81-4.24-.61-.4-1.21-.79-1.83-1.17-.69-.42-1.38-.84-2.09-1.24-.96-.55-1.93-1.07-2.92-1.56-.97-.49-1.95-.95-2.94-1.39-.74-.33-1.48-.64-2.23-.94-8.31-3.32-17.2-4.83-26.19-4.2-2.68.19-5.37.56-8.05,1.14-2.27.49-4.48,1.12-6.63,1.87-.86.3-1.71.61-2.55.94.07-.4.14-.77.22-1.16.06-.29.11-.58.17-.86.06-.26.12-.52.18-.77.05-.22.1-.44.15-.66.88-.32,1.77-.61,2.66-.89.76-.24,1.52-.46,2.29-.67.95-.26,1.91-.5,2.88-.71.32-.07.64-.12.95-.19.1-.01.19-.01.29-.03.21-.04,1.12-.21,2.4-.44ZM111.47,432.92c19.53-8.35,25.47-16.82,26.69-38.03,8.36,19.53,16.82,25.47,38.03,26.69-11.89,5.09-18.73,10.23-22.55,18.26-.39.82-.76,1.65-1.08,2.53-.54,1.46-1.01,3-1.4,4.65h0c-.34,1.44-.63,2.97-.87,4.58-.03.23-.06.47-.1.71-.06.42-.12.84-.17,1.27-.02.14-.03.28-.05.42-.05.42-.1.83-.14,1.25-.05.46-.09.93-.13,1.41-.07.83-.13,1.68-.19,2.56,0,.13-.02.26-.03.39-.04-.1-.09-.19-.13-.29h0c-.28-.65-.56-1.28-.84-1.89-.17-.38-.34-.75-.51-1.11-.15-.32-.3-.62-.46-.93-.03-.06-.05-.11-.08-.16-.18-.36-.35-.73-.53-1.08-.09-.18-.18-.37-.27-.54-.59-1.15-1.18-2.23-1.79-3.26h0c-.65-1.11-1.32-2.16-2.01-3.14-.39-.55-.78-1.08-1.19-1.6-6.7-8.62-15.31-11.83-30.24-12.69ZM142.97,579.77c-.16.49-.32.97-.47,1.47-.06.2-.13.39-.19.59-.56-.47-1.1-.97-1.65-1.46-12.63-11.35-21.57-26.95-25.37-44.53-4.31-19.97-1.57-40.25,7.71-57.1,4.35-7.91,9.91-14.6,16.38-19.93.62-.51,1.24-1.02,1.87-1.51.09.18.18.37.27.56.2.41.4.83.6,1.26.02.04.04.08.06.12.13.28.26.56.39.85-.64.5-1.27,1.02-1.89,1.54-5.55,4.7-10.29,10.42-14.09,16.88-9.29,15.83-12.85,36.09-8.4,56.7,3.58,16.57,11.84,31.24,23.51,42.08.52.48,1.04.97,1.58,1.44-.12.34-.22.69-.33,1.04ZM147.4,570.07c-.48-.48-.94-.98-1.41-1.47-8.68-9.28-15.23-21.4-18.23-35.32-3.83-17.72-1.43-35.65,6.74-50.49.12-.22.26-.44.38-.66,2.59-4.58,5.65-8.67,9.09-12.23.61-.63,1.23-1.25,1.87-1.85.09.25.19.51.28.76.21.56.42,1.13.63,1.72.68,1.86,1.37,3.83,2.08,5.91h0c.22.63.43,1.26.66,1.91.46,1.35,1.72,2.22,3.1,2.22.19,0,.38-.02.57-.05,1.59-.28,2.74-1.68,2.71-3.29-.05-2.44-.08-4.75-.08-6.93h0c0-2.47.02-4.76.08-6.92.01-.41.03-.81.04-1.2.02-.56.04-1.11.07-1.65.8-.46,1.62-.88,2.44-1.3,3.82-1.92,7.87-3.38,12.12-4.29.03,0,.05-.02.08-.03,1.4-.21,2.8-.36,4.2-.45,1.1-.07,2.2-.12,3.3-.12,6.68,0,13.24,1.33,19.47,3.78.75.29,1.49.6,2.23.92.99.44,1.97.89,2.94,1.39.99.5,1.96,1.04,2.93,1.6.7.41,1.4.85,2.09,1.28,5.66,3.6,10.85,8.2,15.36,13.62.46.55.92,1.09,1.36,1.66.85,1.09,1.68,2.21,2.48,3.36h0c.82,1.19,1.6,2.41,2.36,3.66.43.71.84,1.43,1.25,2.16,3.64,6.47,6.43,13.66,8.11,21.43,2.13,9.85,2.29,19.75.65,29.17-.14.81-.27,1.62-.44,2.42-.3,1.43-.63,2.85-1.02,4.26-.36,1.32-.78,2.63-1.22,3.92-.23.67-.48,1.33-.72,1.99-1.13,3.01-2.44,5.93-3.99,8.74-.34.62-.7,1.23-1.06,1.83-.38.63-.77,1.25-1.16,1.86-.9-.1-1.79-.2-2.69-.3-5.16-.58-10.3-1.12-15.44-1.62-.96-.09-1.92-.2-2.88-.29-1.27-.12-2.54-.23-3.81-.34-1.28-.11-2.56-.23-3.84-.34-.92-.08-1.84-.14-2.76-.22-9.66-.78-19.35-1.4-29.17-1.79-8.01-.31-15.62,3.3-20.36,9.55-.46.61-.91,1.24-1.32,1.9-.03.04-.05.09-.08.13ZM156.67,601.72c-1.79-.35-3.55-.71-5.32-1.07-1.26-.26-2.53-.5-3.78-.76,0-.41.01-.81.01-1.22,0-.52.03-1.03.04-1.54.02-.73.02-1.46.06-2.17,0-.03,0-.06,0-.1.07-1.23.18-2.44.33-3.62.02-.18.05-.35.07-.53.07-.49.14-.97.22-1.45.14-.86.29-1.71.47-2.55.04-.19.1-.37.14-.56.11-.5.24-.98.37-1.47.08-.31.15-.63.23-.93,0-.03.02-.07.02-.1.23-.8.48-1.58.75-2.35.11-.31.22-.62.33-.92h0c.4-1.06.84-2.09,1.32-3.09.35-.73.73-1.44,1.12-2.14,0,0,0-.02.01-.02.24-.43.47-.88.73-1.3.16-.26.33-.52.51-.77,3.24-4.66,8.72-7.39,14.54-7.15,11.23.45,22.29,1.19,33.35,2.15.97.08,1.93.16,2.9.24,1.35.12,2.7.25,4.05.38,1.34.13,2.68.25,4.03.39,1.02.1,2.04.22,3.05.32,1.8.18,3.6.37,5.4.57.99.11,1.97.2,2.96.31,1.29.14,2.59.29,3.89.44,1.28.15,2.56.3,3.84.45.38.04.75.09,1.13.13.54.06,1.08.13,1.62.19.21.03.42.05.63.08.01,0,.02,0,.03,0,2.47.3,4.94.6,7.42.92.28.03.55.07.83.11.05,0,.11.01.16.02.67.09,1.35.17,2.02.26.1.01.2.03.3.04,1.44.18,2.88.37,4.32.56,1.4.18,2.8.37,4.21.56.74.1,1.48.2,2.23.3.77.1,1.55.21,2.32.31,8.85,1.2,17.84,2.48,27.06,3.81-.1.07-.21.14-.31.2-.86.56-1.72,1.16-2.56,1.8-2.58,1.95-5.08,4.27-7.47,6.97-.53.59-1.02,1.21-1.49,1.84-.49.65-.95,1.31-1.39,1.98-.78,1.2-1.49,2.44-2.13,3.72-.61,1.21-1.15,2.45-1.65,3.72-.26.65-.5,1.31-.73,1.98-1.31,3.78-2.21,7.73-2.94,11.63-.15.82-.3,1.64-.44,2.45-.1.61-.2,1.21-.3,1.82-1.46-.13-2.88-.27-4.33-.41-2.89-.27-5.75-.55-8.57-.83-1.91-.19-3.8-.39-5.68-.58-18.97-1.96-36.57-4.17-53.2-6.69-.66-.1-1.34-.2-1.99-.3-.6-.09-1.19-.18-1.79-.28-.65-.1-1.3-.2-1.95-.3-1.27-.2-2.53-.41-3.79-.61-.67-.11-1.33-.22-2-.34-8.62-1.41-17.01-2.91-25.21-4.51ZM320.26,641.26c-6.71,7.89-15.04,15.78-21.87,21.44l-144.56-21.68c10.02-5.25,24.36-14,32.54-24.52.46-.59.92-1.19,1.34-1.8.73.11,1.46.22,2.19.34,22.65,3.48,47.02,6.39,74.18,8.87,1.3.12,2.59.24,3.9.35.11,0,.22.01.33.01.67,0,1.3-.18,1.85-.5.95-.54,1.64-1.49,1.82-2.64,0-.06.02-.12.03-.18h0c.17-1.08.34-2.17.52-3.27.13-.81.27-1.62.41-2.43.88-5,2.01-10.07,3.89-14.6.28-.67.57-1.33.88-1.98.63-1.3,1.33-2.54,2.12-3.72.61-.91,1.27-1.79,1.99-2.61.33-.37.67-.74,1.02-1.11.63-.67,1.3-1.33,2-1.98,3.45-3.22,7.59-6.03,11.89-7.46,1.91-.64,3.85-1.01,5.78-1.01.07,0,.13,0,.2,0l3.6.52c.45.18.87.35,1.3.52.78.31,1.54.62,2.25.9,0,.01,0,.02-.01.04-.05.14-.1.28-.14.42-.14.49-.24.99-.32,1.49-.03.22-.06.43-.09.65-.1.9-.11,1.81-.03,2.71-.69.37-1.36.78-2.01,1.22-.08.05-.16.1-.24.16-.81.56-1.58,1.17-2.32,1.82-1.25,1.12-2.4,2.36-3.39,3.72-.79,1.08-1.48,2.23-2.06,3.43-.05.09-.08.19-.12.28-.31.66-.56,1.32-.79,1.98-1.03,2.95-1.32,5.92-.81,8.7.52,2.82,1.92,5.36,3.85,7.24.77.75,1.62,1.4,2.54,1.91.13,1.05.39,2.06.77,3,.06.16.12.32.2.48.15.33.32.65.51.95.61,1.01,1.37,1.89,2.25,2.62.49.41,1.02.75,1.57,1.06.77.43,1.59.76,2.43.97.02.51.07,1,.14,1.49.05.36.15.71.23,1.06.18.79.41,1.56.73,2.27.27.62.58,1.23.95,1.78.15.23.33.45.5.66,1.46,1.85,3.48,3.16,5.7,3.83.71.21,1.43.37,2.17.44-.58.71-1.19,1.42-1.8,2.14ZM370.69,614.75c-.59.48-1.19.94-1.79,1.39-.06.04-.12.09-.18.13-4.28,3.16-8.65,5.39-13.03,6.64-2.38.68-4.78,1.05-7.14,1.13-.84.03-1.67.03-2.49-.01-.16-.45-.42-.86-.76-1.21-.22-.22-.46-.42-.74-.58-.99-.54-2.12-.51-3.05-.03-.23.12-.46.26-.66.43-.17.14-.32.3-.45.48-.1.13-.2.26-.29.42-.08.15-.2.28-.31.42-.25.34-.54.65-.89.9-.47.35-1.01.59-1.58.71-.12.03-.23.07-.34.09-.7.09-1.42-.04-2.09-.31-.32-.13-.62-.3-.9-.5-.2-.14-.4-.28-.56-.46-.4-.42-.89-.71-1.41-.87-.13-.04-.26-.08-.39-.1-.67-.12-1.38-.03-2.03.28-.05.03-.09.06-.14.09-.31.17-.59.39-.82.64-.16.17-.29.36-.4.55-.09.16-.18.32-.24.49-.16.43-.22.9-.19,1.38,0,.1,0,.19,0,.29.01.06,0,.13,0,.2.05.47.02.96-.09,1.44-.34,1.48-1.39,2.86-2.74,3.46-.06.02-.11.06-.16.08-.04.02-.09.02-.14.04-.89.31-1.89.3-2.84.04-1.11-.31-2.12-.96-2.73-1.87-.26-.4-.47-.85-.63-1.35,0-.01,0-.03,0-.05-.24-.77-.35-1.64-.32-2.58,0-.21.02-.43.04-.65.04-.44.09-.88.19-1.34.07-.37.18-.72.29-1.08.19-.64.41-1.26.69-1.87h0c.38-.82.84-1.61,1.37-2.35,0,0,0,0,0,0,.49-.69,1.04-1.34,1.64-1.94.05-.05.11-.11.16-.17.27-.27.55-.52.84-.77.5-.42,1.04-.81,1.59-1.17h0c.4-.26.8-.5,1.22-.72.56-.29,1.13-.53,1.72-.74.1-.04.21-.08.31-.12.03,0,.05-.02.08-.02.15-.05.3-.09.45-.13.21-.06.43-.12.64-.17.31-.08.62-.14.94-.19,0,0,0,0,0,0,.35-.06.67-.18.97-.33.07-.04.15-.06.22-.11.16-.1.3-.21.44-.33.51-.44.85-1.03,1.02-1.69.11-.42.16-.85.08-1.3-.27-1.67-1.76-2.83-3.41-2.75-.11,0-.23,0-.34.02-.35.06-.7.13-1.04.21-.13.03-.26.05-.39.08,0,0,0,0,0,0-.06.01-.12.03-.18.05-.72.18-1.43.4-2.13.65-.54.2-1.07.42-1.59.66-.49.23-.98.47-1.46.74h0c-.62.35-1.23.72-1.82,1.13-.37.26-.73.53-1.08.81-.7.55-1.35,1.16-1.97,1.79-.16.17-.34.33-.5.5-1.49,1.62-2.72,3.47-3.66,5.47-.09.18-.18.36-.26.54-.24.56-.46,1.14-.65,1.72-.55-.27-1.08-.7-1.46-1.24-.12-.17-.22-.34-.3-.52-.03-.07-.06-.16-.09-.23-.28-.71-.41-1.54-.38-2.45.03-1.08.28-2.26.74-3.48.04-.09.06-.19.1-.28.7-1.73,1.73-3.3,2.99-4.66.64-.69,1.34-1.33,2.08-1.9.73-.56,1.5-1.07,2.31-1.51,1.04-.57,2.13-1.03,3.26-1.38,1.08-.33,2.18-.55,3.3-.65.38-.03.76-.05,1.14-.05.34,0,.69,0,1.03.02.08,0,.16.01.25.01.15,0,.29.01.44.03.11.01.21,0,.31,0,.03,0,.06,0,.09,0,1.33-.02,2.49-.86,2.97-2.07.05-.12.1-.24.13-.36h0c.04-.16.08-.32.1-.49.04-.39,0-.76-.09-1.12-.19-.75-.62-1.39-1.23-1.85h0c-.46-.34-1-.57-1.6-.63-.09,0-.18-.01-.28-.02-.66-.06-1.31-.08-1.97-.08-.12,0-.25,0-.37,0-.05,0-.1,0-.15,0-.64.02-1.27.07-1.91.14-1.06.12-2.11.3-3.14.57-1.64.42-3.23,1.01-4.73,1.77-.06.03-.11.06-.17.09-.75.39-1.47.82-2.17,1.29-.34.22-.68.45-1.01.69-2.6,1.91-4.8,4.34-6.41,7.17-.46.81-.89,1.64-1.24,2.52-.05.13-.09.26-.14.4-.48-.76-.84-1.64-1.01-2.57-.05-.27-.08-.54-.11-.82-.16-1.9.29-4.04,1.29-6.11.1-.2.21-.39.32-.58.37-.68.77-1.35,1.24-1.98.8-1.09,1.75-2.08,2.79-2.94.33-.27.66-.53,1-.77.31-.22.63-.43.96-.63.59-.36,1.2-.7,1.83-.98.38-.17.76-.31,1.15-.45,1.19-.42,2.44-.69,3.7-.83,1.35-.15,2.72-.12,4.07.06.81.11,1.61.25,2.39.49.04.01.08.01.12.02.42.11.84.13,1.25.08.15-.02.3-.07.45-.11.71-.2,1.35-.64,1.78-1.26.03-.04.05-.07.08-.11.16-.26.31-.53.4-.84.11-.38.14-.77.12-1.14-.09-1.33-.98-2.53-2.33-2.93-.79-.23-1.6-.41-2.41-.55h0c-1.86-.33-3.77-.43-5.67-.31-.59.04-1.19.1-1.78.18-.27.04-.53.09-.79.14.02-.16.06-.31.1-.47.02-.11.04-.22.07-.33.18-.64.49-1.25.87-1.82.26-.39.55-.77.88-1.11.98-1.03,2.26-1.85,3.68-2.33.46-.16.93-.29,1.41-.37.58-.1,1.18-.13,1.79-.13,2.68,0,5.53.95,8.06,2.74,2.41,1.71,4.55,4.1,6.5,7.29.29.48.58.97.87,1.49l.21.38s.04.08.06.11c.66,1.19,1.41,2.54,2.5,3.72.67.72,1.46,1.37,2.44,1.88,2.62,1.35,5.73,1.26,9.52-.28.35-.14.69-.3,1.03-.46.75-.34,1.5-.7,2.24-1.1,0,0,0,0,.01,0,.12.14.22.28.34.41h0c.26.31.51.63.77.94.27.33.55.66.82,1,0,0-.01,0-.02,0-.76.32-1.5.68-2.24,1.04,0,0,0,0-.01,0-.2.1-.4.18-.59.28-1.19.59-2.37,1.22-3.51,1.89-.04.03-.08.06-.12.09-1.46.95-1.94,2.89-1.04,4.41.61,1.04,1.71,1.61,2.83,1.61.57,0,1.14-.15,1.66-.46,1.53-.91,3.13-1.72,4.75-2.45,0,0,0,0,.01,0,.74-.33,1.49-.66,2.25-.95,0,0,0,0,0,0,.3.45.6.9.89,1.35.07.11.15.22.22.33.08.13.15.26.24.39.06.09.11.19.17.28.44.71.88,1.41,1.3,2.13.02.03.03.06.05.08-.83.13-1.66.33-2.47.57,0,0,0,0-.01,0-1.6.46-3.15,1.08-4.59,1.91-1.57.9-2.12,2.9-1.22,4.47.37.65.94,1.09,1.57,1.36.41.17.83.29,1.28.29.55,0,1.11-.14,1.63-.43,1.41-.8,2.96-1.36,4.56-1.65,0,0,0,0,.01,0,.5-.09,1-.16,1.51-.19.34-.02.66-.11.96-.23.05.11.11.22.16.34.06.13.13.26.19.39.09.19.18.38.27.57,0,0,0,0-.01.01ZM401.29,591.24h-3.87c.34-.66.66-1.32.98-1.98,1.38-2.84,2.63-5.74,3.71-8.69.62-1.7-.26-3.58-1.96-4.2-1.03-.38-2.13-.19-2.98.39-.54.37-.98.91-1.22,1.57-1.36,3.74-3.01,7.39-4.89,10.93-.35.66-.69,1.33-1.06,1.98-.7,1.26-1.44,2.5-2.2,3.72-.79,1.26-1.61,2.5-2.46,3.72-.47.67-.95,1.32-1.43,1.98-1.16,1.57-2.37,3.1-3.62,4.58-.83.98-1.68,1.96-2.55,2.9-.06.06-.11.12-.17.18-.58.62-1.17,1.24-1.77,1.83-.27-.55-.55-1.1-.83-1.64-.16-.31-.31-.62-.47-.92-.05-.1-.11-.19-.16-.29-.48-.91-.99-1.82-1.5-2.71-.17-.29-.33-.57-.5-.86-.46-.77-.92-1.54-1.4-2.3-.15-.23-.29-.47-.44-.7-.02-.02-.03-.05-.05-.07-.42-.66-.86-1.31-1.3-1.95,0,0-.01-.02-.02-.03-.18-.27-.36-.54-.55-.8-.13-.19-.27-.38-.41-.57-.54-.76-1.1-1.52-1.67-2.28-.02-.02-.03-.04-.05-.06-.15-.2-.31-.41-.47-.61-.04-.05-.07-.09-.11-.14-.6-.78-1.21-1.54-1.84-2.3-.12-.15-.24-.31-.37-.46-.04-.05-.08-.1-.12-.15.02-.02.05-.04.07-.06.59-.48,1.17-1,1.74-1.52.16-.15.32-.31.48-.46,3.36-3.2,6.35-7.11,8.79-11.58,3.92-7.19,6.18-15.04,7.9-22.16h0c.24-.98.47-1.95.68-2.9.41-1.76-.69-3.53-2.46-3.93-1.77-.41-3.53.69-3.93,2.46-1.71,7.41-3.88,15.94-7.95,23.39-2.33,4.27-5.2,7.93-8.43,10.79-1.13,1-2.3,1.9-3.5,2.7-.68.45-1.37.85-2.06,1.23-.6.32-1.2.62-1.8.89-.25.11-.51.23-.76.33-1.86.75-3.26.94-4.05.53-.54-.28-1.04-.95-1.52-1.74-.25-.41-.5-.85-.74-1.29l-.22-.4c-2.67-4.82-5.72-8.4-9.31-10.95-4.51-3.19-9.88-4.55-14.74-3.73-2.06.35-4,1.12-5.71,2.19-.66.41-1.29.87-1.88,1.37-.49-.2-.99-.4-1.5-.61-.32-.13-.64-.26-.97-.39-.96-.39-1.97-.79-3.04-1.21-.07-.03-.13-.04-.2-.06s-.13-.05-.19-.07c-.1-.03-.19-.04-.29-.07,0,0-.01,0-.02,0,0,0-.02,0-.02,0-1.11-.28-2.24-.48-3.39-.59-4.25-.71-8.35-1.26-12.33-1.7-.46-.07-.91-.13-1.37-.2-7.05-1.02-13.97-2.01-20.79-2.97-.25-.03-.5-.07-.75-.1-2.57-.36-5.13-.71-7.68-1.06-.71-.1-1.42-.2-2.12-.29.29-.51.6-1,.88-1.52.02-.04.05-.08.07-.13.04-.07.07-.14.11-.21.25-.47.49-.95.74-1.42.62.23,1.26.44,1.89.66,2.16.76,4.37,1.44,6.63,2.04,4.03,1.06,8.21,1.86,12.49,2.37,2.61.31,5.26.53,7.94.62.22,0,.45,0,.67.01.94.03,1.88.06,2.83.06,5.68,0,11.48-.49,17.34-1.52,21.56-3.78,40.67-14.13,53.82-29.16,13.34-15.25,18.97-33.48,15.84-51.33-2.45-13.97-10.05-26.01-21.01-35.11-.73-.6-1.47-1.2-2.23-1.78.73-.25,1.45-.53,2.17-.79,17.48-6.23,34.42-14.07,50.43-23.47.15-.09.3-.18.45-.27.7-.42,1.4-.83,2.11-1.27.54.61,1.07,1.23,1.6,1.86,13.34,15.63,21.94,34.66,24.81,55.58,4.3,31.32-4.27,64.83-23.51,91.94-3.81,5.37-7.95,10.34-12.35,14.94-.63.66-1.25,1.34-1.89,1.98Z" fill="#1f1f1f"/><path d="M272.29,536.28c-.1.19-.19.38-.25.58-.1.31-.14.62-.15.94-.03,1.18.57,2.33,1.67,2.94,2.81,1.56,6.03,2.38,9.24,2.38,1.44,0,2.88-.16,4.28-.49,4.53-1.07,8.63-3.89,11.26-7.73,1.02-1.5.64-3.54-.86-4.56-1.5-1.02-3.54-.63-4.56.86-.88,1.29-2.02,2.4-3.32,3.27h0c-1.23.82-2.59,1.44-4.03,1.78-1.44.34-2.93.4-4.4.21-1.55-.2-3.07-.68-4.43-1.44-1.58-.88-3.58-.31-4.46,1.27Z" fill="#1f1f1f"/><path d="M299.67,508.29c6.17,2.73,12.12,6.04,17.69,9.83.57.38,1.21.57,1.84.57,1.05,0,2.08-.5,2.71-1.43,1.02-1.5.63-3.54-.86-4.56-.86-.59-1.74-1.15-2.62-1.72h0c-3.6-2.31-7.33-4.45-11.17-6.36,3.11-2.42,6.01-4.76,8.83-7.04h0c.47-.38.95-.77,1.42-1.15,1.41-1.14,1.62-3.21.48-4.61-1.14-1.41-3.21-1.62-4.61-.48-4.47,3.62-9.08,7.37-14.36,11.34-.93.7-1.42,1.84-1.29,2.99.13,1.16.87,2.15,1.93,2.63Z" fill="#1f1f1f"/><path d="M411.3,470.26c1.07-2.72.89-5.88-.47-8.46-.84-1.6-2.82-2.22-4.43-1.37-.06.03-.12.08-.18.12-1.46.9-2.01,2.77-1.19,4.31.48.9.54,2.06.17,3.01-.37.95-1.21,1.75-2.17,2.09-.8.28-1.59.07-1.74-.13-.22-.31-.26-1.16-.11-2.51.42-3.79,1.22-7.52,2.35-11.15.27-.85.53-1.71.84-2.55.62-1.7-.26-3.58-1.97-4.2-1.7-.62-3.58.26-4.2,1.97-1.78,4.91-2.97,10.02-3.54,15.21-.16,1.47-.5,4.54,1.29,7.05,1.39,1.94,3.74,3.02,6.25,3.02.99,0,2-.17,2.99-.51,2.75-.97,5.03-3.17,6.1-5.88Z" fill="#1f1f1f"/><path d="M420.36,507.62c1.8-2.5,2.14-5.99.92-9.33-.62-1.7-2.51-2.57-4.21-1.95-.36.13-.67.33-.94.55-1.05.86-1.5,2.31-1,3.65.46,1.24.42,2.54-.08,3.24-.46.63-1.82,1.62-2.7,1.64-.14,0-.38,0-.78-.5-.6-.78-.85-1.97-.74-3.56l.71-10.05h0s.25-3.45.25-3.45c.13-1.81-1.23-3.38-3.04-3.5-1.82-.13-3.37,1.23-3.5,3.04l-.96,13.51c-.23,3.24.47,5.95,2.09,8.04,1.52,1.97,3.63,3.04,5.95,3.04.04,0,.09,0,.13,0,3.82-.07,6.84-2.88,7.91-4.36Z" fill="#1f1f1f"/><path d="M335.35,438.76c-.14.03-.26.08-.39.12-1.35.45-2.26,1.73-2.23,3.14,0,.2.02.4.06.6.31,1.56,1.68,2.63,3.21,2.63.21,0,.43-.02.65-.07.97-.2,1.93-.41,2.9-.62,1.94-.43,3.88-.87,5.82-1.36.94-.24,1.87-.49,2.81-.74,19.2-5.17,37.71-13.44,54.33-24.28.7-.45,1.4-.9,2.09-1.37.78-.53,1.57-1.05,2.35-1.58.15-.1.28-.22.4-.35h0c1.04-1.01,1.29-2.59.6-3.88-.06-.11-.11-.23-.19-.34-.41-.59-.97-.99-1.6-1.21-.96-.34-2.06-.24-2.97.39-.31.21-.62.42-.93.63-.94.64-1.88,1.29-2.83,1.91-.71.47-1.44.92-2.16,1.38-4.5,2.86-9.13,5.55-13.88,8.01,0,0,0,0,0,0-8.27,4.29-16.89,7.97-25.71,10.96h0c-6.3,2.14-12.72,3.91-19.18,5.34-1.05.23-2.09.48-3.14.69Z" fill="#1f1f1f"/><path d="M290.63,433.94c.4.16.82.24,1.23.24,1.1,0,2.14-.56,2.75-1.5.11-.17.21-.35.29-.54,1.91-4.69,4.07-9.26,6.45-13.7h0c5.94-11.09,13.32-21.34,21.91-30.51.74-.79,1.47-1.58,2.23-2.36,1.03-1.06,2.09-2.09,3.15-3.12.11-.11.22-.21.33-.32h0c.98-.93,1.97-1.85,2.98-2.75.83-.75,1.68-1.47,2.53-2.2,1.95-1.68,3.93-3.34,5.98-4.91,1.44-1.1,1.7-3.16.6-4.6-1.1-1.44-3.17-1.7-4.6-.6-3.88,2.99-7.59,6.17-11.14,9.51-.83.78-1.65,1.56-2.46,2.35-1.09,1.07-2.17,2.17-3.23,3.27-1.05,1.09-2.08,2.2-3.09,3.33-.75.83-1.48,1.66-2.21,2.5-10.66,12.36-19.31,26.4-25.5,41.62-.53,1.31-.15,2.75.84,3.65.28.25.6.47.96.62Z" fill="#1f1f1f"/><path d="M246.15,428.62c.08,0,.15,0,.23,0,1.71,0,3.15-1.33,3.27-3.06.39-5.8,1.25-11.6,2.5-17.32.25-1.14.49-2.28.77-3.41.38-1.55.8-3.09,1.25-4.62.46-1.58.94-3.15,1.46-4.71.38-1.15.8-2.3,1.22-3.44,1.64-4.48,3.54-8.86,5.69-13.09.82-1.61.18-3.59-1.43-4.41-.85-.43-1.79-.45-2.62-.14-.35.13-.68.31-.98.55-.33.27-.61.62-.81,1.02-3.44,6.75-6.27,13.86-8.46,21.18-.36,1.19-.7,2.38-1.02,3.58-.44,1.63-.85,3.26-1.22,4.9h0c-.36,1.59-.69,3.19-.99,4.79-.22,1.19-.43,2.38-.62,3.57-.59,3.69-1.02,7.4-1.27,11.11-.12,1.81,1.24,3.37,3.05,3.49Z" fill="#1f1f1f"/><path d="M164.53,510.64l12.22,2.08,2.01.34c-.08.52-.15,1.05-.21,1.59-.01.13-.02.25-.04.38-.32,3.17-.22,6.52.38,9.94,1.26,7.18,4.46,13.63,9.01,18.15,1.67,1.66,3.46,2.99,5.32,4,.98.53,1.98.97,2.99,1.31,1.24.42,2.5.69,3.77.81.54.05,1.09.09,1.63.09.61,0,1.23-.05,1.84-.12.33-.04.66-.07.99-.13.48-.08.95-.2,1.42-.33,7.53-2.05,12.94-9.5,14.51-18.91.23-1.36.38-2.75.44-4.18.05-1.14.02-2.3-.04-3.47,0-.06,0-.12-.01-.18-.04-.6-.06-1.2-.13-1.81h0c.19.03.38.05.57.05.01,0,.02,0,.04,0,0,0,.02,0,.02,0,.33,0,.64-.06.95-.14.13-.04.26-.09.39-.14.09-.04.19-.06.28-.1,1.04-.51,1.84-1.48,2.05-2.71.32-1.9-.87-3.7-2.7-4.19-.11-.03-.22-.07-.34-.09l-.39-.07-.38-.07-2.17-.37-1.26-.21-2.02-.34-.94-.16-4.4-.75-2.49-.42-9.16-1.56-2.42-.41-3.3-.56-2.56-.44-.69-.12-1.33-.23-1.08-.18-2.77-.47-3.72-.63-2.11-.36-12.91-2.2c-.38-.07-.75-.05-1.11,0-1.57.21-2.89,1.4-3.17,3.04,0,.05,0,.09,0,.14-.26,1.97,1.07,3.81,3.05,4.15Z" fill="#1f1f1f"/><path d="M428.61,616.22l-26.43-.53c-1.04-.03-1.99.37-2.7,1.09l-86.75,86.75c-1.05,1.05-1.38,2.63-.82,4.02s1.88,2.3,3.37,2.33l26.43.53s.05,0,.08,0c.98,0,1.93-.39,2.63-1.09l8.16-8.16,7.02-7.02.19-.19,6.94-6.94.27-.27,6.86-6.86.35-.35,6.77-6.77.44-.44,6.67-6.67.54-.54,6.58-6.58.63-.63,7.21-7.21,6.38-6.38.83-.83,6.29-6.29.92-.92,6.19-6.19,7.51-7.51c1.05-1.05,1.38-2.63.82-4.02s-1.88-2.3-3.37-2.33ZM418.31,624.91l-3.95,3.95h-7.87c-.95,0-1.72.77-1.72,1.72,0,.66.38,1.23.92,1.51.24.13.51.2.79.2h4.43l-3.78,3.78h-7.76c-.95,0-1.72.77-1.72,1.72,0,.66.38,1.23.92,1.51.24.13.51.2.79.2h4.33l-3.78,3.78h-7.66c-.95,0-1.72.77-1.72,1.72,0,.66.38,1.23.92,1.51.24.13.51.2.79.2h4.22l-3.78,3.78h-7.55c-.95,0-1.72.77-1.72,1.72,0,.66.38,1.23.92,1.51.24.13.51.2.79.2h4.12l-3.78,3.78h-7.45c-.95,0-1.72.77-1.72,1.72,0,.66.38,1.23.92,1.51.24.13.51.2.79.2h4.01l-3.78,3.78h-7.34c-.95,0-1.72.77-1.72,1.72,0,.66.38,1.23.92,1.51.24.13.51.2.79.2h3.91l-3.78,3.78h-7.23c-.95,0-1.72.77-1.72,1.72,0,.66.38,1.23.92,1.51.24.13.51.2.79.2h3.8l-3.78,3.78h-7.13c-.95,0-1.72.77-1.72,1.72,0,.66.38,1.23.92,1.51.24.13.51.2.79.2h3.7l-3.78,3.78h-7.02c-.95,0-1.72.77-1.72,1.72,0,.66.38,1.23.92,1.51.24.13.51.2.79.2h3.59l-3.78,3.78h-6.92c-.95,0-1.72.77-1.72,1.72s.77,1.72,1.72,1.72h3.48l-5.77,5.77-16.12-.33,79.46-79.46,16.12.33-1.43,1.43Z" fill="#1f1f1f"/></g></svg>